<svg xmlns="http://www.w3.org/2000/svg" xmlns:xlink="http://www.w3.org/1999/xlink" width="1920" zoomAndPan="magnify" viewBox="0 0 1440 809.999993" height="1080" preserveAspectRatio="xMidYMid meet" version="1.0"><defs><clipPath id="d5f00420a2"><path d="M 471 203.132812 L 919 203.132812 L 919 651 L 471 651 Z M 471 203.132812 " clip-rule="nonzero"/></clipPath></defs><g clip-path="url(#d5f00420a2)"><path fill="#ff4374" d="M 736.789062 203.941406 C 838.148438 205.050781 919.421875 288.140625 918.304688 389.507812 C 917.199219 490.855469 834.117188 572.132812 732.75 571.019531 C 695.316406 570.613281 658.90625 558.757812 628.382812 537.054688 L 523.550781 641.867188 C 511.546875 653.714844 492.195312 653.59375 480.347656 641.574219 C 468.621094 629.6875 468.621094 610.566406 480.347656 598.660156 L 585.179688 493.847656 C 526.425781 411.25 545.777344 296.648438 628.382812 237.890625 C 660.03125 215.40625 697.972656 203.515625 736.789062 203.941406 Z M 738.992188 235.710938 C 655.285156 233.371094 585.523438 299.324219 583.183594 383.046875 C 583.148438 384.519531 583.117188 385.992188 583.117188 387.460938 C 583.085938 471.199219 650.953125 539.117188 734.683594 539.167969 C 818.429688 539.199219 886.351562 471.347656 886.390625 387.601562 C 886.390625 387.554688 886.390625 387.515625 886.390625 387.46875 C 886.484375 305.308594 821.128906 238.007812 738.992188 235.710938 Z M 738.992188 235.710938 " fill-opacity="1" fill-rule="nonzero"/></g><path fill="#ff4374" d="M 775.691406 275.015625 C 767.394531 272.046875 758.257812 276.355469 755.28125 284.65625 C 752.328125 292.894531 756.558594 301.980469 764.773438 305.019531 C 799.441406 317.636719 822.519531 350.589844 822.519531 387.476562 C 822.519531 396.296875 829.664062 403.445312 838.480469 403.445312 C 847.292969 403.445312 854.441406 396.296875 854.441406 387.476562 C 854.4375 337.167969 822.972656 292.21875 775.691406 275.015625 Z M 775.691406 275.015625 " fill-opacity="1" fill-rule="nonzero"/></svg>